# xmcd
#
# Track frame offsets: 
#        150
#        3547
#        17250
#        28110
#        38895
#        51207
#        65080
#        76297
#        91240
#        104635
#        119407
#        129872
#        143315
#        154332
#        165527
#        178770
#        195177
#        208610
#        218492
#        228642
#        236505
#        249927
#
# Disc length: 3374 seconds
#
# Revision: 0
# Processed by: cddbd v1.5.2PL0 Copyright (c) Steve Scherf et al.
# Submitted via: ExactAudioCopy v0.99pb4
#
DISCID=1b0d2c16
DTITLE=(Various Original Singers) - Scorpio (Ford Sierra GT)
DYEAR=1992
DGENRE=Country
TTITLE0=Scorpio (Music)
TTITLE1=Stand by Me
TTITLE2=Runaway
TTITLE3=Just One Look
TTITLE4=Corinna Corinna
TTITLE5=Earth Angel
TTITLE6=Smoke Gets in Your Eyes
TTITLE7=The Great Pretender
TTITLE8=When a Man Loves a Woman
TTITLE9=Jean
TTITLE10=Wings of a Dove
TTITLE11=Tom Dooley
TTITLE12=To Know Him Is To Love Him
TTITLE13=Donna
TTITLE14=Tell Laura I Love Her
TTITLE15=Good Morning Starshine
TTITLE16=My Guy
TTITLE17=Good Golly Miss Molly
TTITLE18=Little Darling
TTITLE19=Stay
TTITLE20=Then You Can Tell Me Goodbye
TTITLE21=Scorpio
EXTD=
EXTT0=
EXTT1=
EXTT2=
EXTT3=
EXTT4=
EXTT5=
EXTT6=
EXTT7=
EXTT8=
EXTT9=
EXTT10=
EXTT11=
EXTT12=
EXTT13=
EXTT14=
EXTT15=
EXTT16=
EXTT17=
EXTT18=
EXTT19=
EXTT20=
EXTT21=
PLAYORDER=
